<svg xmlns="http://www.w3.org/2000/svg" x="0" y="0" width="100%" height="100%" viewBox="190, 105, 180, 170">
    <g id="Layer_3">
        <path d="M199.5,116.5 C199.5,116.5 200.249,151.857 200.249,151.857 C200.249,151.857 257.981,151.857 257.981,151.857 C257.981,151.857 288.2,176.507 288.2,176.507 C288.2,176.507 327.991,116.5 327.991,116.5 C327.991,116.5 199.5,116.5 199.5,116.5 z" fill-opacity="0" stroke="#ffaa88" stroke-width="6" stroke-linejoin="round"/>
        <path d="M265.241,203.783 C265.241,203.783 288.2,176.507 288.2,176.507 C288.2,176.507 257.981,151.857 257.981,151.857 C257.981,151.857 200.249,151.857 200.249,151.857 C200.249,151.857 265.241,203.783 265.241,203.783 z" fill-opacity="0" stroke="#ffaa88" stroke-width="6" stroke-linejoin="round"/>
        <path d="M327.991,116.5 C327.991,116.5 358.893,137.405 358.893,137.405 C358.893,137.405 294.001,229.224 294.001,229.224 C294.001,229.224 249.576,229.186 249.576,229.186 C249.576,229.186 327.991,116.5 327.991,116.5 z" fill-opacity="0" stroke="#ffaa88" stroke-width="6" stroke-linejoin="round"/>
        <path d="M315.954,199.638 C315.954,199.638 361.798,238.502 361.798,238.502 C361.798,238.502 336.436,265.5 336.436,265.5 C336.436,265.5 293.578,229.175 293.578,229.175 C293.578,229.175 316.462,199.638 315.954,199.638 z" fill-opacity="0" stroke="#ffaa88" stroke-width="6" stroke-linejoin="round"/>
        <path d="M710.5,331.5" fill-opacity="0" stroke="#000000" stroke-width="3"/>
        <path d="M235.735,181.854 C235.735,181.854 202.74,228.45 202.74,228.45 C202.74,228.45 202.74,265.5 202.74,265.5 C202.74,265.5 336.436,265.5 336.436,265.5 C336.436,265.5 293.579,229.175 293.579,229.175 C293.579,229.175 249.576,229.186 249.576,229.186 C249.576,229.186 265.241,203.783 265.241,203.783 C265.241,203.783 235.735,181.854 235.735,181.854 z" fill-opacity="0" stroke="#ffaa88" stroke-width="6" stroke-linejoin="round"/>
    </g>
</svg>
